PathFileType	4	(X/Y/Z)	E:\Qualisys_Data\Carbon_Farble_Plate\Data\Amateur_Runner\S1\T1\S1T1V13_c3d.trc
DataRate	CameraRate	NumFrames	NumMarkers	Units	OrigDataRate	OrigDataStartFrame	OrigNumFrames
200.000000	200.000000	5	39	mm	200.000000	205	328
Frame#	Time	LSHO			RSHO			LICST			RICST			LASIS			LHEEL			RASIS			LTROC			RTROC			SACR			LTH1			LSK4			LTH2			LTH3			RHM5			LSK2			LTH4			RTH1			LTOE			RTH2			RTH3			RTH4			LLEP			RLEP			LSK1			LSK3			RSK1			LHM5			RSK2			LFT1			RSK3			RSK4			LLME			RLME			RTOE			RHEEL			RFT1			RFT2			LFT2			
		X1	Y1	Z1	X2	Y2	Z2	X3	Y3	Z3	X4	Y4	Z4	X5	Y5	Z5	X6	Y6	Z6	X7	Y7	Z7	X8	Y8	Z8	X9	Y9	Z9	X10	Y10	Z10	X11	Y11	Z11	X12	Y12	Z12	X13	Y13	Z13	X14	Y14	Z14	X15	Y15	Z15	X16	Y16	Z16	X17	Y17	Z17	X18	Y18	Z18	X19	Y19	Z19	X20	Y20	Z20	X21	Y21	Z21	X22	Y22	Z22	X23	Y23	Z23	X24	Y24	Z24	X25	Y25	Z25	X26	Y26	Z26	X27	Y27	Z27	X28	Y28	Z28	X29	Y29	Z29	X30	Y30	Z30	X31	Y31	Z31	X32	Y32	Z32	X33	Y33	Z33	X34	Y34	Z34	X35	Y35	Z35	X36	Y36	Z36	X37	Y37	Z37	X38	Y38	Z38	X39	Y39	Z39	

206	1.025	629.567626953125	1515.69091796875	-558.9077758789062	667.585693359375	1478.043090820312	-234.5573120117188	603.3715209960938	1033.908447265625	-539.8385009765625	616.0599975585938	1048.564453125	-241.0794830322266	648.4325561523438	995.9639282226562	-514.622314453125	437.1769714355469	262.8692626953125	-449.3361511230469	652.3204345703125	998.3905029296876	-250.1017913818359	555.0452270507812	908.9842529296876	-560.1388549804688	535.3388061523438	917.1784057617188	-220.4747314453125	492.5234069824219	1058.79638671875	-383.0262451171875	732.4681396484375	820.0556030273438	-530.4662475585938	545.3914184570312	381.43603515625	-479.4081726074219	664.7944946289062	777.6923217773438	-563.135009765625	781.8973388671875	728.9933471679688	-523.1387329101562	421.5634155273438	52.58430480957031	-263.862548828125	614.548095703125	450.7332153320312	-515.1065673828125	709.368896484375	687.82373046875	-544.5984497070312	644.978271484375	771.9098510742188	-250.2831878662109	641.6222534179688	109.3325881958008	-456.4456176757812	571.0494995117188	779.4367065429688	-217.7157287597656	629.0615844726562	671.989013671875	-262.7969055175781	552.1604614257812	683.1049194335938	-238.5415496826172	792.2100219726562	561.9856567382812	-512.4058227539062	546.9396362304688	512.0822143554688	-283.9805908203125	671.799072265625	389.2301330566406	-512.6195678710938	595.6923828125	324.0047302246094	-506.7496337890625	462.1438293457031	339.2530212402344	-271.2163696289062	577.9274291992188	132.3178405761719	-513.5436401367188	389.7112121582031	375.78955078125	-275.8951416015625	432.4149169921875	236.2127532958984	-419.9772644042969	418.4838256835938	249.4747619628906	-284.0062255859375	347.9380493164062	287.3870544433594	-300.2122802734375	493.2153625488281	254.1827239990234	-496.8482971191406	328.9027099609375	151.7351684570312	-283.9974365234375	491.9510803222656	51.58896255493164	-344.7343139648438	252.1188659667969	131.9062805175781	-322.9982604980469	254.9731292724609	101.9400024414062	-355.2723693847656	248.7510528564453	107.9439926147461	-296.0409545898438	424.6019897460938	236.7459411621094	-472.5069274902344
207	1.03	642.5145874023438	1519.21875	-559.7731323242188	684.27978515625	1482.605712890625	-236.3886260986328	619.1144409179688	1038.588623046875	-539.7448120117188	632.3419799804688	1051.457153320312	-241.4387512207031	664.0416259765625	1000.041748046875	-515.1709594726562	465.5871276855469	252.7099151611328	-448.6324157714844	668.2395629882812	1000.891540527344	-250.9203491210938	570.9840087890625	913.8079223632812	-561.09716796875	550.4038696289062	920.7156372070312	-221.2629699707031	508.3709411621094	1062.6630859375	-382.7503967285156	748.5003051757812	825.1065673828125	-530.0574340820312	568.3319091796875	375.3447570800781	-478.9456481933594	681.2720336914062	782.3343505859375	-562.81884765625	798.6751098632812	734.1029663085938	-522.4329223632812	422.3942565917969	53.12845993041992	-264.1790161132812	634.4862060546875	447.4607849121094	-514.4629516601562	726.3150634765625	693.1685180664062	-544.48486328125	656.5424194335938	774.1539916992188	-250.5163879394531	676.3951416015625	108.2749252319336	-456.5538635253906	583.2637329101562	783.2937622070312	-218.2876434326172	638.434814453125	674.740966796875	-263.4618225097656	562.105712890625	687.5133666992188	-239.0111999511719	808.5394897460938	566.5381469726562	-511.69775390625	553.5579833984375	516.7076416015625	-284.1270751953125	694.4775390625	388.51611328125	-512.176025390625	621.0490112304688	319.9754638671875	-506.4539489746094	466.7146606445312	344.495361328125	-270.6705322265625	611.8689575195312	128.5976409912109	-514.1939086914062	394.473876953125	381.2921142578125	-276.0501708984375	462.2117919921875	225.6674346923828	-419.6644592285156	422.6741943359375	254.9068298339844	-282.8341369628906	352.6375732421875	292.8685607910156	-300.2707214355469	521.5234375	246.0961303710938	-495.8615112304688	332.6497497558594	156.7358551025391	-283.41845703125	492.852294921875	51.78578186035156	-344.5919189453125	256.0841369628906	138.0398254394531	-323.0379943847656	258.1685180664062	107.817268371582	-355.7623901367188	251.8169097900391	113.3430633544922	-296.350830078125	453.7041015625	225.8822631835938	-472.3881530761719
208	1.035	655.5863037109375	1522.744018554688	-560.3853149414062	700.6571044921875	1487.261352539062	-237.596923828125	634.87158203125	1042.630004882812	-539.8392333984375	649.2339477539062	1053.842407226562	-243.4081420898438	679.529296875	1004.139587402344	-515.7299194335938	494.0493774414062	242.1295318603516	-448.3652954101562	683.8519897460938	1003.604064941406	-252.3270263671875	587.074462890625	918.1919555664062	-561.6205444335938	564.9910278320312	924.7293090820312	-221.7798461914062	524.47607421875	1066.542724609375	-383.1761779785156	764.8018188476562	830.0078735351562	-529.4503173828125	591.495849609375	369.3506469726562	-478.5023803710938	697.776611328125	786.8435668945312	-562.577392578125	814.9508056640625	739.1605224609375	-521.23291015625	423.2772827148438	53.92276763916016	-263.7011108398438	654.3870239257812	443.9694213867188	-514.6389770507812	742.7105102539062	697.6302490234375	-543.9625244140625	668.674072265625	776.7645263671875	-250.5779418945312	710.8275756835938	106.4184875488281	-457.2760314941406	595.2473754882812	787.1366577148438	-218.9065704345703	648.37890625	677.7657470703125	-264.0883178710938	571.9371948242188	692.1846313476562	-239.8837127685547	824.3748779296875	570.7208862304688	-511.0928344726562	560.1781616210938	520.96826171875	-284.016357421875	716.9105834960938	387.9726257324219	-511.8772277832031	646.7178344726562	315.6818542480469	-506.1176452636719	472.0953063964844	350.459716796875	-269.4430541992188	645.3604736328125	124.4934616088867	-514.4505004882812	399.7416076660156	387.2416381835938	-276.0205688476562	491.4306030273438	214.7704620361328	-419.4957580566406	427.7014770507812	260.6908569335938	-281.176025390625	357.5583190917969	298.6621398925781	-300.04248046875	550.3090209960938	238.1183013916016	-496.0577697753906	336.5690307617188	161.4688568115234	-282.8647766113281	493.9870300292969	51.73250961303711	-344.4051208496094	259.5558471679688	143.9424438476562	-323.7755737304688	261.8554077148438	113.9064636230469	-355.855712890625	255.533447265625	119.1540298461914	-296.5652465820312	483.9363708496094	215.0189361572266	-472.2088928222656
209	1.04	668.8169555664062	1525.955688476562	-561.1696166992188	716.9898071289062	1492.044189453125	-239.1183319091797	650.495361328125	1046.800659179688	-540.2758178710938	665.4959716796875	1056.9716796875	-244.0132446289062	695.1828002929688	1008.097900390625	-516.7197265625	523.3267822265625	231.7136993408203	-447.6691284179688	699.6012573242188	1005.982177734375	-253.2294769287109	602.4020385742188	922.5447998046876	-562.3444213867188	579.77197265625	928.522216796875	-222.6932678222656	540.5765380859375	1070.56103515625	-383.7008972167969	780.7747192382812	834.4078979492188	-528.985107421875	615.3412475585938	363.2325439453125	-478.06005859375	714.0750122070312	791.4884643554688	-562.6223754882812	830.72998046875	743.5360107421875	-520.525634765625	424.6717834472656	54.63374710083008	-263.7442932128906	674.7470703125	440.59521484375	-514.939208984375	759.0769653320312	702.563232421875	-543.956787109375	680.734619140625	779.2950439453125	-250.6932220458984	745.5432739257812	105.190544128418	-458.0474243164062	607.4219970703125	791.3676147460938	-219.4957885742188	658.1392822265625	681.0302734375	-263.6659545898438	581.7838745117188	696.6754760742188	-239.9018096923828	839.7733764648438	574.6840209960938	-510.590576171875	567.647705078125	525.5777587890625	-283.7693176269531	739.436767578125	387.2980651855469	-511.4675903320312	672.460693359375	312.2474975585938	-505.6102600097656	477.398681640625	355.8502502441406	-268.3941345214844	679.3684692382812	121.1256713867188	-514.8258666992188	405.3624877929688	393.0855102539062	-275.6593017578125	521.9043579101562	203.7665405273438	-419.0682067871094	432.9003601074219	266.005126953125	-280.2705993652344	362.9932250976562	304.5186157226562	-299.6068420410156	579.3902587890625	230.6620941162109	-495.3594360351562	341.2161254882812	166.0077514648438	-281.5633239746094	495.0951538085938	51.68305587768555	-343.8883972167969	263.5849304199219	150.0789031982422	-323.255615234375	265.885986328125	120.2484817504883	-356.9470825195312	259.38134765625	125.7005462646484	-296.40185546875	513.6845703125	204.2208862304688	-471.5049438476562
210	1.045	682.29638671875	1529.310424804688	-561.9868774414062	733.5095825195312	1496.594116210938	-240.4518585205078	666.1597290039062	1050.747436523438	-540.727294921875	681.3217163085938	1060.077514648438	-245.1473541259766	710.8908081054688	1011.772644042969	-516.9852905273438	553.4453125	221.4222259521484	-447.0388488769531	715.3169555664062	1008.563537597656	-254.1817169189453	618.0982666015625	926.8724975585938	-563.1491088867188	594.5687866210938	932.5115966796876	-223.2136688232422	556.8281860351562	1074.594604492188	-384.1402282714844	796.511962890625	838.560546875	-528.6634521484375	638.4481201171875	357.0359191894531	-478.3447570800781	729.9591674804688	795.8087768554688	-562.5880126953125	846.4759521484375	747.6885375976562	-519.7222900390625	425.98681640625	55.38730621337891	-263.6919555664062	694.0438842773438	437.2914733886719	-515.8041381835938	774.6275634765625	706.3079223632812	-543.3215942382812	692.9461669921875	781.5234985351562	-250.5404663085938	780.095458984375	104.5888595581055	-458.5700988769531	619.6721801757812	795.1304931640625	-219.7219085693359	668.5255126953125	683.5354614257812	-264.1770324707031	592.7225341796875	701.0613403320312	-240.4400787353516	854.896728515625	578.7109985351562	-510.0138854980469	574.7355346679688	530.2000732421875	-283.1929016113281	761.9523315429688	386.6300354003906	-511.1309814453125	698.05029296875	308.3811950683594	-505.1856079101562	483.3767395019531	361.1741943359375	-267.2273254394531	713.08056640625	117.7383041381836	-515.2890625	411.6786804199219	398.8061828613281	-275.4848937988281	552.714111328125	193.8312377929688	-418.7513122558594	438.4356689453125	271.7561340332031	-278.9093933105469	369.0299377441406	310.3402709960938	-299.290771484375	608.73291015625	222.9118804931641	-495.7647705078125	346.2760620117188	171.2104187011719	-280.7176818847656	496.6452026367188	51.42431259155273	-343.4689025878906	269.0227966308594	157.1468658447266	-323.1259155273438	270.6820373535156	127.2110977172852	-356.2774658203125	264.0029907226562	132.1932220458984	-296.3096618652344	544.625732421875	193.5385894775391	-471.3613586425781
